<svg xmlns="http://www.w3.org/2000/svg" width="170" height="170" viewBox="0 0 170 170">
  <defs>
    <style>
      .cls-1 {
        fill: #fff;
      }

      .cls-2 {
        fill: #ff4824;
      }

      .cls-2, .cls-3 {
        fill-rule: evenodd;
      }

      .cls-3 {
        fill: #ab270d;
      }
    </style>
  </defs>
  <circle class="cls-1" cx="85" cy="85" r="85"/>
  <path id="Color_Fill_1" data-name="Color Fill 1" class="cls-2" d="M102,40S80.631,88.309,79,113c-0.645,9.765,4.039,19.592,18,24,10.256,3.238,20.323-.686,24-1l7-23c0.01,0.018-28.788,8.9-24-10,2.476-9.775,27.669-79.044,30-79H82.875l2.25,14.338Z"/>
  <path id="Color_Fill_2" data-name="Color Fill 2" class="cls-3" d="M119,67l-9,28S51.475,83.021,43,82c-62.032-7.47,22-11,22-11Z"/>
  <path id="Color_Fill_1_copy" data-name="Color Fill 1 copy" class="cls-2" d="M82.875,24l20.25,13.314S54.349,87.436,50,104c-4.858,18.5,23.927,9.012,24,9l-8,25s-12.042,2.468-23-2c-19.439-7.927-22.21-23.555-10-48C44.835,64.308,82.875,24,82.875,24Z"/>
</svg>
